<svg width="31" height="51" viewBox="0 0 31 51" fill="none" xmlns="http://www.w3.org/2000/svg">
<path d="M15.6667 2.068L2.37867 22L15.6667 41.932L28.9547 22L15.6667 2.068ZM15.6667 0L30.3333 22L15.6667 44L1 22L15.6667 0Z" fill="#FFC22D"/>
<path d="M11.6773 16.852L10.3671 18.612L9.81955 24.1853V18.0547L11.6773 16.852Z" fill="#FFC22D"/>
<path d="M15.1191 11.484L13.4178 13.2733L12.8409 15.9867V13.3613L14.1511 12.2467V12.3053L15.1191 11.484Z" fill="#FFC22D"/>
<path d="M7.40445 24.1853H9.81956L7.60978 24.596L6.67111 26.4L7.40445 24.1853Z" fill="#FFC22D"/>
<path d="M13.8089 15.356V13.7427L15.6667 12.3053V14.1093L13.8089 15.356Z" fill="#FFC22D"/>
<path d="M14.5618 26.2533H13.9849V24.4347L14.5618 24.376V26.2533Z" fill="#FFC22D"/>
<path d="M14.5618 22.308L13.9849 22.44V20.6213L14.5618 20.416V22.308Z" fill="#FFC22D"/>
<path d="M14.5618 18.612L13.9849 18.876V17.0427L14.5618 16.72V18.612Z" fill="#FFC22D"/>
<path d="M12.88 26.2533H12.4107V24.6107L12.88 24.552V26.2533Z" fill="#FFC22D"/>
<path d="M12.88 22.704L12.4107 22.8067V21.164L12.88 21.0027V22.704Z" fill="#FFC22D"/>
<path d="M12.88 19.3747L12.4107 19.58V17.9373L12.88 17.6733V19.3747Z" fill="#FFC22D"/>
<path d="M11.4329 26.2533H11.0418V24.7573L11.4329 24.7133V26.2533Z" fill="#FFC22D"/>
<path d="M11.4329 23.0413L11.0418 23.1293V21.6333L11.4329 21.5013V23.0413Z" fill="#FFC22D"/>
<path d="M11.4329 20.02L11.0418 20.196V18.7L11.4329 18.48V20.02Z" fill="#FFC22D"/>
<path d="M15.1191 11.484L15.6667 10.956L14.1511 12.2467V9.97333L15.6667 7.77333L17.1822 9.97333V12.2467L18.4925 13.3613V16.0013L21.5236 18.04V24.1707H23.9289L24.6622 26.4H21.5333H15.6667V14.2413V14.1093L17.5244 15.356V13.7427L15.6667 12.3053V11.0293L15.1191 11.484ZM15.1876 10.34L14.728 10.7653V11.6453L15.1876 11.2493V10.34ZM17.3484 17.0427L16.7618 16.72V18.612L17.3484 18.876V17.0427ZM17.3484 20.6213L16.7618 20.416V22.308L17.3484 22.44V20.6213ZM17.3484 24.4347L16.7618 24.376V26.2533H17.3484V24.4347ZM19.9005 26.2533H20.2916V24.7573L19.9005 24.7133V26.2533ZM19.9005 23.0413L20.2916 23.1293V21.6333L19.9005 21.5013V23.0413ZM19.9005 20.02L20.2916 20.196V18.7L19.9005 18.48V20.02ZM18.4533 26.2533H18.9325V24.6107L18.4533 24.552V26.2533ZM18.4533 22.704L18.9325 22.8213V21.1787L18.4533 21.0173V22.704ZM18.4533 19.3747L18.9325 19.5947V17.952L18.4533 17.688V19.3747ZM16.0676 11.264L16.5271 11.66V10.78L16.0676 10.3547V11.264Z" fill="#FFC22D"/>
<path d="M15.1191 11.484L14.1511 12.3053V12.2467L15.6667 10.9707L15.1191 11.484Z" fill="#FFC22D"/>
<g filter="url(#filter0_dd)">
<path d="M26.4711 26.3267L4.91111 26.4L15.6667 42.5333L26.4711 26.3267Z" fill="#FFC22D"/>
<path d="M15.6667 41.6319L25.5347 26.8299L5.84326 26.8968L15.6667 41.6319Z" stroke="black"/>
<path d="M15.6667 41.6319L25.5347 26.8299L5.84326 26.8968L15.6667 41.6319Z" stroke="url(#paint0_linear)"/>
</g>
<defs>
<filter id="filter0_dd" x="0.91111" y="26.3267" width="29.56" height="24.2067" filterUnits="userSpaceOnUse" color-interpolation-filters="sRGB">
<feFlood flood-opacity="0" result="BackgroundImageFix"/>
<feColorMatrix in="SourceAlpha" type="matrix" values="0 0 0 0 0 0 0 0 0 0 0 0 0 0 0 0 0 0 127 0"/>
<feOffset dy="4"/>
<feGaussianBlur stdDeviation="2"/>
<feColorMatrix type="matrix" values="0 0 0 0 0 0 0 0 0 0 0 0 0 0 0 0 0 0 0.25 0"/>
<feBlend mode="normal" in2="BackgroundImageFix" result="effect1_dropShadow"/>
<feColorMatrix in="SourceAlpha" type="matrix" values="0 0 0 0 0 0 0 0 0 0 0 0 0 0 0 0 0 0 127 0"/>
<feOffset dy="4"/>
<feGaussianBlur stdDeviation="2"/>
<feColorMatrix type="matrix" values="0 0 0 0 0 0 0 0 0 0 0 0 0 0 0 0 0 0 0.25 0"/>
<feBlend mode="normal" in2="effect1_dropShadow" result="effect2_dropShadow"/>
<feBlend mode="normal" in="SourceGraphic" in2="effect2_dropShadow" result="shape"/>
</filter>
<linearGradient id="paint0_linear" x1="15.6911" y1="26.3267" x2="15.6911" y2="42.5333" gradientUnits="userSpaceOnUse">
<stop stop-color="white"/>
<stop offset="1" stop-color="white" stop-opacity="0"/>
</linearGradient>
</defs>
</svg>
